<svg xmlns="http://www.w3.org/2000/svg" xmlns:xlink="http://www.w3.org/1999/xlink" viewBox="0 0 24 30" version="1.1" x="0px" y="0px"><title>SEO_042-dashboard-report-analytics-chart Copy</title><desc>Created with Sketch.</desc><g stroke="none" stroke-width="1" fill="none" fill-rule="evenodd"><g transform="translate(-72.000000, -264.000000)" fill="#000000"><g transform="translate(72.000000, 266.000000)"><path d="M0,0.998746091 C0,0.447153856 0.44746922,0 1.00069463,0 L22.9993054,0 C23.5519738,0 24,0.438614845 24,0.998746091 L24,20.0012539 C24,20.5528461 23.5525308,21 22.9993054,21 L1.00069463,21 C0.448026248,21 0,20.5613852 0,20.0012539 L0,0.998746091 Z M1,1 L1,20 L23,20 L23,1 L1,1 Z"/><rect x="3" y="3" width="3" height="1"/><rect x="7" y="3" width="5" height="1"/><rect x="3" y="5" width="3" height="1"/><rect x="7" y="5" width="5" height="1"/><rect x="3" y="7" width="3" height="1"/><rect x="7" y="7" width="5" height="1"/><rect x="3" y="9" width="3" height="1"/><rect x="15" y="13" width="2" height="1"/><rect x="15" y="15" width="2" height="1"/><rect x="15" y="17" width="2" height="1"/><rect x="18" y="13" width="3" height="1"/><path d="M16.1745349,9.74030774 C14.8987312,9.21788759 14,7.96389875 14,6.5 C14,5.46546797 14.4488442,4.53576912 15.1624193,3.89501677 L16.9612835,6.5933131 L16.1745349,9.74030774 Z M17.1448376,9.98220227 C17.2616261,9.9939719 17.3801091,10 17.5,10 C19.4329966,10 21,8.43299662 21,6.5 C21,6.38010909 20.9939719,6.26162612 20.9822023,6.14483764 L17.9123106,6.91231056 L17.1448376,9.98220227 Z M15.9940307,3.33965823 C16.4501742,3.1219062 16.9608507,3 17.5,3 C18.9638988,3 20.2178876,3.89873121 20.7403077,5.17453486 L17.7205712,5.92946899 L15.9940307,3.33965823 Z"/><path d="M0,0.998746091 C0,0.447153856 0.44746922,0 1.00069463,0 L22.9993054,0 C23.5519738,0 24,0.438614845 24,0.998746091 L24,20.0012539 C24,20.5528461 23.5525308,21 22.9993054,21 L1.00069463,21 C0.448026248,21 0,20.5613852 0,20.0012539 L0,0.998746091 Z M1,1 L1,20 L23,20 L23,1 L1,1 Z"/><rect x="18" y="15" width="3" height="1"/><rect x="18" y="17" width="3" height="1"/><rect x="3" y="12" width="1" height="6"/><rect x="5" y="16" width="1" height="2"/><rect x="7" y="14" width="1" height="4"/><rect x="9" y="14" width="1" height="4"/><rect x="11" y="15" width="1" height="3"/><rect x="7" y="9" width="5" height="1"/></g></g></g><text x="0" y="39" fill="#000000" font-size="5px" font-weight="bold" font-family="'Helvetica Neue', Helvetica, Arial-Unicode, Arial, Sans-serif">Created by Xinh Studio</text><text x="0" y="44" fill="#000000" font-size="5px" font-weight="bold" font-family="'Helvetica Neue', Helvetica, Arial-Unicode, Arial, Sans-serif">from the Noun Project</text></svg>